{"title":"The Evening Star (1996) MacLaine (DVDrip opt.NL subs)","uid":4361597,"size":728643771,"categoryP":"video","categoryS":"movies","magnet":"?xt=urn:btih:ce88f3628e3e8dc3c10b197253c943c88175b986&amp;dn=The+Evening+Star+%281996%29+MacLaine+%28DVDrip+opt.NL+subs%29&amp;tr=udp%3A%2F%2Ftracker.openbittorrent.com%3A80&amp;tr=udp%3A%2F%2Fopen.demonii.com%3A1337&amp;tr=udp%3A%2F%2Ftracker.coppersurfer.tk%3A6969&amp;tr=udp%3A%2F%2Fexodus.desync.com%3A6969","seeders":4,"leechers":1,"uploader":"Kuthumi","files":-1,"time":1219681622,"description":" &lt;a href=&quot;http://www.imdb.com/title/tt0116240/&quot; rel=&quot;nofollow&quot; target=&quot;_NEW&quot;&gt;http://www.imdb.com/title/tt0116240/&lt;/a&gt;\n\nOptional Dutch subs in separate idx/sub files.\n\nThis classic with Shirley MacLaine continues the story from 'Terms of Endearment'. No torrent for this film remains on the net, so I bought a copy of the only available European edition. It has only Dutch subtitles, so I kept them as an obtion for our friends in the Netherlands.\n\nMy new ripping procedure now produces decent quality for such a long film compressed into just 700 MiB.\n\nDVDrip XviD 2-pass AC3.\nLetterbox format 672x512, great stereo AC3.\n\nBurn tested, runs well in my standalone DivX player.\n\nSource: PAL retail (note that PAL/NTSC will give no problems for avi files)\n\nFormat/Info                      : Audio Video Interleave\nFile size                        : 694 MiB\nDuration                         : 2h 3mn\nOveral bit rate                  : 786 Kbps\n\nVideo\nFormat                           : MPEG-4 Visual\nFormat profile                   : Streaming Video@L1\nFormat settings, BVOP            : Yes\nFormat settings, QPel            : No\nFormat settings, GMC             : No warppoints\nFormat settings, Matrix          : Default\nMuxing mode                      : Packet Bitstream\nCodec ID                         : XVID\nCodec ID/Hint                    : XviD\nDuration                         : 2h 3mn\nBit rate                         : 648 Kbps\nWidth                            : 672 pixels\nHeight                           : 512 pixels\nDisplay aspect ratio             : 4/3\nFrame rate                       : 25.000 fps\nResolution                       : 8 bits\nColorimetry                      : 4:2:0\nScan type                        : Progressive\nBits/(Pixel*Frame)               : 0.075\nStream size                      : 573 MiB\nWriting library                  : XviD 1.2.0.dev47 (UTC 2006-11-01)\n\nAudio\nFormat                           : MPEG Audio\nFormat version                   : Version 1\nFormat profile                   : Layer 3\nCodec ID                         : 55\nCodec ID/Hint                    : MP3\nDuration                         : 2h 3mn\nBit rate mode                    : Constant\nBit rate                         : 128 Kbps\nMinimum bit rate                 : 128 Kbps\nChannel(s)                       : 2 channels\nSampling rate                    : 48.0 KHz\nResolution                       : 16 bits\nStream size                      : 113 MiB\nWriting library                  : LAME3.97 \nEncoding settings                : CBR\n","torrent":{"xt":"urn:btih:ce88f3628e3e8dc3c10b197253c943c88175b986","amp;dn":"The+Evening+Star+%281996%29+MacLaine+%28DVDrip+opt.NL+subs%29","amp;tr":["udp%3A%2F%2Ftracker.openbittorrent.com%3A80","udp%3A%2F%2Fopen.demonii.com%3A1337","udp%3A%2F%2Ftracker.coppersurfer.tk%3A6969","udp%3A%2F%2Fexodus.desync.com%3A6969"],"infoHash":"ce88f3628e3e8dc3c10b197253c943c88175b986","infoHashBuffer":{"type":"Buffer","data":[206,136,243,98,142,62,141,195,193,11,25,114,83,201,67,200,129,117,185,134]},"announce":[],"urlList":[]}}